PathFileType	4	(X/Y/Z)	C:\Git\research_data\torsion_deformities_healthy_kinematics\simulations\P01\post\Stand01\marker_experimental_HJC.trc
DataRate	CameraRate	NumFrames	NumMarkers	Units	OrigDataRate	OrigDataStartFrame	OrigNumFrames
150	150	3	184	mm	150	1.450000e+02	6
Frame#	Time	LFHD			LBHD			RFHD			RBHD			C7			T10			CLAV			STRN			RBAK			LSHO			LUPA			LELB			LFRA			LWRB			LWRA			LFIN			RSHO			RUPA			RELB			RFRA			RWRB			RWRA			RFIN			SACR			LASI			RASI			LT1			LT2			LT3			LS1			LS2			LS3			LHEE			LTOE			RT1			RT2			RT3			RS1			RS2			RS3			RHEE			RTOE			PELO			PELA			PELL			PELP			SACO			SACA			SACL			SACP			LFEO			LFEA			LFEL			LFEP			RFEO			RFEA			RFEL			RFEP			LTIO			LTIA			LTIL			LTIP			RTIO			RTIA			RTIL			RTIP			LFOO			LFOA			LFOL			LFOP			RFOO			RFOA			RFOL			RFOP			LTOO			LTOA			LTOL			LTOP			RTOO			RTOA			RTOL			RTOP			HEDO			HEDA			HEDL			HEDP			LCLO			LCLA			LCLL			LCLP			RCLO			RCLA			RCLL			RCLP			TRXO			TRXA			TRXL			TRXP			LHUO			LHUA			LHUL			LHUP			LRAO			LRAA			LRAL			LRAP			LHNO			LHNA			LHNL			LHNP			RHUO			RHUA			RHUL			RHUP			RRAO			RRAA			RRAL			RRAP			RHNO			RHNA			RHNL			RHNP			LPelvisAngles			RPelvisAngles			LFootProgressAngles			RFootProgressAngles			LHipAngles			RHipAngles			LKneeAngles			RKneeAngles			LAnkleAngles			RAnkleAngles			LFFootAngles			RFFootAngles			LAbsAnkleAngle			RAbsAnkleAngle			RNeckAngles			LNeckAngles			RSpineAngles			LSpineAngles			LShoulderAngles			LElbowAngles			LWristAngles			RShoulderAngles			RElbowAngles			RWristAngles			RThoraxAngles			LThoraxAngles			RHeadAngles			LHeadAngles			LHipPower			LKneePower			LAnklePower			RHipPower			RKneePower			RAnklePower			LWaistPower			RWaistPower			LNeckPower			RNeckPower			LShoulderPower			RShoulderPower			LElbowPower			RElbowPower			LWristPower			RWristPower			F_ForcePlate1			F_ForcePlate2			F_ForcePlate3			LGRF			RGRF			LHipForce			RHipForce			LKneeForce			RKneeForce			LAnkleForce			RAnkleForce			LWaistForce			RWaistForce			LNeckForce			RNeckForce			LShoulderForce			RShoulderForce			RHJC		
		X1	Y1	Z1	X2	Y2	Z2	X3	Y3	Z3	X4	Y4	Z4	X5	Y5	Z5	X6	Y6	Z6	X7	Y7	Z7	X8	Y8	Z8	X9	Y9	Z9	X10	Y10	Z10	X11	Y11	Z11	X12	Y12	Z12	X13	Y13	Z13	X14	Y14	Z14	X15	Y15	Z15	X16	Y16	Z16	X17	Y17	Z17	X18	Y18	Z18	X19	Y19	Z19	X20	Y20	Z20	X21	Y21	Z21	X22	Y22	Z22	X23	Y23	Z23	X24	Y24	Z24	X25	Y25	Z25	X26	Y26	Z26	X27	Y27	Z27	X28	Y28	Z28	X29	Y29	Z29	X30	Y30	Z30	X31	Y31	Z31	X32	Y32	Z32	X33	Y33	Z33	X34	Y34	Z34	X35	Y35	Z35	X36	Y36	Z36	X37	Y37	Z37	X38	Y38	Z38	X39	Y39	Z39	X40	Y40	Z40	X41	Y41	Z41	X42	Y42	Z42	X43	Y43	Z43	X44	Y44	Z44	X45	Y45	Z45	X46	Y46	Z46	X47	Y47	Z47	X48	Y48	Z48	X49	Y49	Z49	X50	Y50	Z50	X51	Y51	Z51	X52	Y52	Z52	X53	Y53	Z53	X54	Y54	Z54	X55	Y55	Z55	X56	Y56	Z56	X57	Y57	Z57	X58	Y58	Z58	X59	Y59	Z59	X60	Y60	Z60	X61	Y61	Z61	X62	Y62	Z62	X63	Y63	Z63	X64	Y64	Z64	X65	Y65	Z65	X66	Y66	Z66	X67	Y67	Z67	X68	Y68	Z68	X69	Y69	Z69	X70	Y70	Z70	X71	Y71	Z71	X72	Y72	Z72	X73	Y73	Z73	X74	Y74	Z74	X75	Y75	Z75	X76	Y76	Z76	X77	Y77	Z77	X78	Y78	Z78	X79	Y79	Z79	X80	Y80	Z80	X81	Y81	Z81	X82	Y82	Z82	X83	Y83	Z83	X84	Y84	Z84	X85	Y85	Z85	X86	Y86	Z86	X87	Y87	Z87	X88	Y88	Z88	X89	Y89	Z89	X90	Y90	Z90	X91	Y91	Z91	X92	Y92	Z92	X93	Y93	Z93	X94	Y94	Z94	X95	Y95	Z95	X96	Y96	Z96	X97	Y97	Z97	X98	Y98	Z98	X99	Y99	Z99	X100	Y100	Z100	X101	Y101	Z101	X102	Y102	Z102	X103	Y103	Z103	X104	Y104	Z104	X105	Y105	Z105	X106	Y106	Z106	X107	Y107	Z107	X108	Y108	Z108	X109	Y109	Z109	X110	Y110	Z110	X111	Y111	Z111	X112	Y112	Z112	X113	Y113	Z113	X114	Y114	Z114	X115	Y115	Z115	X116	Y116	Z116	X117	Y117	Z117	X118	Y118	Z118	X119	Y119	Z119	X120	Y120	Z120	X121	Y121	Z121	X122	Y122	Z122	X123	Y123	Z123	X124	Y124	Z124	X125	Y125	Z125	X126	Y126	Z126	X127	Y127	Z127	X128	Y128	Z128	X129	Y129	Z129	X130	Y130	Z130	X131	Y131	Z131	X132	Y132	Z132	X133	Y133	Z133	X134	Y134	Z134	X135	Y135	Z135	X136	Y136	Z136	X137	Y137	Z137	X138	Y138	Z138	X139	Y139	Z139	X140	Y140	Z140	X141	Y141	Z141	X142	Y142	Z142	X143	Y143	Z143	X144	Y144	Z144	X145	Y145	Z145	X146	Y146	Z146	X147	Y147	Z147	X148	Y148	Z148	X149	Y149	Z149	X150	Y150	Z150	X151	Y151	Z151	X152	Y152	Z152	X153	Y153	Z153	X154	Y154	Z154	X155	Y155	Z155	X156	Y156	Z156	X157	Y157	Z157	X158	Y158	Z158	X159	Y159	Z159	X160	Y160	Z160	X161	Y161	Z161	X162	Y162	Z162	X163	Y163	Z163	X164	Y164	Z164	X165	Y165	Z165	X166	Y166	Z166	X167	Y167	Z167	X168	Y168	Z168	X169	Y169	Z169	X170	Y170	Z170	X171	Y171	Z171	X172	Y172	Z172	X173	Y173	Z173	X174	Y174	Z174	X175	Y175	Z175	X176	Y176	Z176	X177	Y177	Z177	X178	Y178	Z178	X179	Y179	Z179	X180	Y180	Z180	X181	Y181	Z181	X182	Y182	Z182	X183	Y183	Z183	X184	Y184	Z184	

148	0.980000	-334.919067	1545.847412	1298.352051	-333.806213	1521.749512	1159.071167	-461.677429	1542.791382	1306.807007	-484.783905	1517.989136	1181.020752	-401.222046	1406.165039	1149.238770	-393.973267	1225.544067	1086.967163	-406.461548	1339.077515	1266.665771	-407.301300	1302.770142	1287.483765	-508.651245	1266.928833	1077.768066	-254.524368	1380.261719	1181.729736	-145.910583	1190.108887	1151.824463	-88.122993	1114.716431	1172.067261	-41.391975	1071.645630	1192.861938	49.329247	941.448120	1268.863403	23.770508	950.012695	1333.303101	79.392242	901.193115	1350.359741	-554.975220	1367.374878	1176.450439	-623.050110	1281.146606	1158.092407	-694.405640	1091.875366	1148.396362	-817.564514	951.792969	1205.065308	-842.845032	909.705261	1223.413208	-842.232910	935.265076	1289.084106	-900.170349	882.814209	1298.740479	-393.951324	971.701416	1083.395874	-253.910080	934.218933	1269.619141	-540.071777	934.053955	1261.452881	-206.083038	643.497681	1239.086426	-191.035522	553.458069	1157.203735	-234.989288	566.725342	1293.095093	-202.857117	258.261536	1179.328125	-188.190979	179.842606	1087.083984	-227.526840	178.385300	1223.721680	-275.676788	39.444462	1091.290771	-226.218124	38.867970	1252.083862	-583.636292	660.823547	1198.900635	-555.460754	589.722229	1101.207397	-582.523071	571.991882	1241.445190	-576.966187	267.653931	1154.187744	-555.147339	203.303741	1054.001709	-571.245056	182.325577	1193.765381	-495.220245	41.383076	1085.270752	-539.828430	39.910160	1246.351562	-395.045837	848.691589	1200.154419	-395.466309	845.638794	1214.950806	-382.456085	848.698853	1200.513672	-395.842590	972.044617	1225.581787	-393.486877	959.576111	1142.232788	-393.662048	958.304138	1148.397949	-387.191986	959.579773	1142.412354	-393.885376	1021.252625	1154.946411	-281.350708	469.595490	1219.155884	-274.500610	472.211365	1256.743408	-244.015656	474.269836	1212.026489	-332.099091	848.790771	1202.014771	-498.632324	473.709839	1207.151978	-505.681946	475.348755	1244.169312	-461.802216	469.886963	1214.335205	-457.992706	848.592346	1198.293945	-266.437164	45.473988	1149.667603	-248.374588	40.629181	1183.114502	-231.541748	49.688553	1131.433228	-280.169464	436.001740	1213.651855	-505.541443	50.475159	1142.326538	-521.218506	45.247616	1178.127197	-469.366760	47.524326	1157.736572	-499.179596	440.186432	1202.017334	-226.957367	49.202579	1252.804321	-227.909241	62.510239	1253.731934	-214.213318	50.384598	1248.924438	-266.383667	55.280609	1125.153809	-539.468506	50.073181	1247.307495	-539.001953	63.248512	1248.546631	-526.691162	49.301937	1250.696777	-505.023712	60.836205	1119.902588	-214.013336	47.553276	1294.819092	-214.313934	51.755699	1295.112061	-209.988907	47.926556	1293.593872	-226.463669	49.472858	1254.508301	-550.786743	46.879284	1289.249512	-550.639404	51.039917	1289.640869	-546.751770	46.635727	1290.319824	-539.909485	50.278393	1249.016479	-410.774658	1443.397827	1128.663330	-392.405792	1484.238770	1350.044800	-185.872833	1449.782104	1108.824585	-420.619446	1665.448364	1088.515747	-258.045471	1333.457275	1179.291260	-178.230011	1319.744751	1327.239136	-245.409637	1501.418213	1188.041870	-406.089233	1340.400146	1259.802002	-547.103577	1321.107910	1173.918823	-630.607910	1299.128418	1315.964844	-519.262695	1157.468506	1164.964844	-406.089233	1340.400146	1259.801880	-406.089233	1340.400146	1259.802002	-414.995667	1308.761353	1423.991821	-573.229126	1337.308472	1250.139771	-401.232056	1175.997925	1228.385742	-120.111870	1096.167969	1170.776245	-210.937042	1052.538818	915.332214	-339.496246	965.039490	1271.176514	-258.045441	1333.457275	1179.291260	32.205376	940.334717	1300.077271	36.639797	792.471130	1116.648438	-156.059326	827.806824	1386.235718	-109.449654	1085.259644	1179.827393	99.139275	836.056885	1391.033081	211.801910	935.787842	1422.463501	179.476013	783.077026	1271.174194	32.205421	940.334717	1300.077148	-662.310486	1076.156616	1157.978760	-502.604645	1014.731506	947.624573	-848.722107	1174.917358	987.611755	-547.103577	1321.107910	1173.918823	-837.612671	917.835388	1258.012451	-778.987610	751.449585	1097.413452	-1001.616211	1004.724365	1108.124756	-674.581665	1065.074097	1164.981201	-932.534668	824.266479	1346.942505	-1057.760864	917.809814	1311.701660	-901.196350	914.645508	1475.485962	-837.612671	917.835449	1258.012451	-0.362449	1.594281	-11.647485	0.362449	-1.594281	-11.647485	-4.271715	-17.145454	-2.726262	-2.091259	-15.077353	-4.829024	7.652717	-12.045912	-14.021674	6.177229	-9.191375	-13.183179	-3.238248	-16.383291	-12.715684	-3.186620	-11.664854	-10.882117	0.655370	10.636472	-5.791955	0.321960	8.247988	-3.540601	0.000000	-0.000000	0.000000	-0.000000	0.000000	-0.000000	0.000000	0.000000	-9.402613	0.000000	0.000000	-8.857525	1.009080	-8.305499	21.046263	-1.009080	8.305499	21.046263	-1.341879	1.432428	0.758918	1.341879	-1.432428	0.758918	-29.103659	-29.605534	-6.093556	0.000000	0.000000	-35.156734	11.093679	123.251595	-1.560889	-26.634686	-40.871582	-7.795751	0.000000	0.000000	-34.416172	8.866921	115.995079	-6.504276	1.662220	-3.050246	-10.818429	-1.662220	3.050246	-10.818429	2.498141	4.669269	-10.248554	-2.498141	-4.669269	-10.248554	NaN	NaN	NaN	NaN	NaN	NaN	NaN	NaN	NaN	NaN	NaN	NaN	NaN	NaN	NaN	NaN	NaN	NaN	NaN	NaN	NaN	NaN	NaN	NaN	NaN	NaN	NaN	NaN	NaN	NaN	NaN	NaN	NaN	NaN	NaN	NaN	NaN	NaN	NaN	NaN	NaN	NaN	NaN	NaN	NaN	NaN	NaN	NaN	-398.021027	1.304700	259.089996	-231.415009	1.697000	-251.317001	-396.987000	4.582600	-949.962036	0.000000	0.000000	0.000000	0.000000	0.000000	0.000000	NaN	NaN	NaN	NaN	NaN	NaN	NaN	NaN	NaN	NaN	NaN	NaN	NaN	NaN	NaN	NaN	NaN	NaN	NaN	NaN	NaN	NaN	NaN	NaN	NaN	NaN	NaN	NaN	NaN	NaN	NaN	NaN	NaN	-496.591712	850.305282	1189.699784	
149	0.986667	-334.934570	1545.855103	1298.329590	-333.823975	1521.753784	1159.049072	-461.693329	1542.789795	1306.792603	-484.804413	1517.982056	1181.008301	-401.238464	1406.162231	1149.224609	-393.986115	1225.534058	1086.970703	-406.462982	1339.088379	1266.654175	-407.298828	1302.782593	1287.479736	-508.664276	1266.913330	1077.770020	-254.533905	1380.272827	1181.708252	-145.907135	1190.129517	1151.803223	-88.112694	1114.741577	1172.046875	-41.373127	1071.675537	1192.836670	49.366734	941.489685	1268.837402	23.822086	950.063293	1333.283081	79.440712	901.241943	1350.339844	-554.985352	1367.366821	1176.451294	-623.060852	1281.133545	1158.113037	-694.408325	1091.851685	1148.443726	-817.582153	951.804138	1205.093628	-842.853149	909.716736	1223.450684	-842.242126	935.279846	1289.115601	-900.166992	882.799011	1298.765869	-393.954956	971.698853	1083.414062	-253.898346	934.225342	1269.630615	-540.056763	934.052002	1261.487183	-206.070526	643.496765	1239.093140	-191.031174	553.458435	1157.211182	-234.972900	566.724487	1293.107178	-202.854050	258.260529	1179.333008	-188.191528	179.842957	1087.087280	-227.522293	178.383453	1223.725830	-275.679382	39.444832	1091.293091	-226.216339	38.867481	1252.085083	-583.630737	660.819641	1198.935547	-555.466736	589.721069	1101.234131	-582.514648	571.989380	1241.475952	-576.963135	267.653900	1154.202148	-555.147949	203.308548	1054.012573	-571.244019	182.323669	1193.776123	-495.220490	41.383156	1085.273560	-539.826416	39.911564	1246.353516	-395.035248	848.691895	1200.179688	-395.454468	845.639526	1214.976318	-382.445435	848.699463	1200.537964	-395.833160	972.045654	1225.603394	-393.484009	959.574707	1142.254639	-393.658630	958.302856	1148.419800	-387.189087	959.578491	1142.433716	-393.882935	1021.251526	1154.966675	-281.341949	469.594849	1219.174438	-274.488068	472.210968	1256.761475	-244.007324	474.268768	1212.041260	-332.088348	848.792908	1202.035156	-498.628418	473.704285	1207.166260	-505.673859	475.341278	1244.184937	-461.797150	469.880249	1214.345093	-457.982147	848.590942	1198.324341	-266.435730	45.473614	1149.671265	-248.372009	40.627472	1183.117432	-231.540771	49.688393	1131.435791	-280.161285	436.001099	1213.669189	-505.545074	50.473545	1142.329590	-521.221619	45.245304	1178.130005	-469.370453	47.521725	1157.738892	-499.176239	440.181061	1202.030762	-226.955536	49.202095	1252.805542	-227.907364	62.509754	1253.733276	-214.211533	50.384094	1248.925537	-266.383118	55.280968	1125.155396	-539.466187	50.074593	1247.309204	-538.999268	63.249939	1248.548218	-526.688721	49.303082	1250.697876	-505.027100	60.835205	1119.902710	-214.011063	47.552662	1294.820190	-214.311661	51.755081	1295.113159	-209.986649	47.925941	1293.594971	-226.461731	49.472340	1254.509521	-550.782532	46.881691	1289.251953	-550.635071	51.042324	1289.643188	-546.747498	46.638027	1290.322021	-539.907288	50.279652	1249.018066	-410.789337	1443.395142	1128.648071	-392.414764	1484.243652	1350.027832	-185.888763	1449.796997	1108.800049	-420.653625	1665.443848	1088.494995	-258.052063	1333.467896	1179.275269	-178.230667	1319.777710	1327.219971	-245.427078	1501.428833	1188.006104	-406.091400	1340.410156	1259.790161	-547.111389	1321.099976	1173.924561	-630.599304	1299.133423	1315.979736	-519.262756	1157.463135	1164.987793	-406.091309	1340.410156	1259.790039	-406.091400	1340.410156	1259.790161	-414.980286	1308.791138	1423.982788	-573.230042	1337.308594	1250.144531	-401.228668	1176.006470	1228.393677	-120.100197	1096.190308	1170.762207	-210.958206	1052.530151	915.336304	-339.458191	965.053040	1271.205811	-258.052124	1333.467896	1179.275269	32.249821	940.380554	1300.056030	36.670010	792.499756	1116.638916	-155.994110	827.843994	1386.252563	-109.435654	1085.283569	1179.812866	99.188789	836.109192	1391.021729	211.869141	935.836426	1422.418091	179.503357	783.099121	1271.156738	32.249832	940.380615	1300.056030	-662.315002	1076.136353	1158.037842	-502.541382	1014.634583	947.749146	-848.680176	1174.836792	987.574646	-547.111450	1321.099976	1173.924561	-837.621887	917.848145	1258.047607	-778.936584	751.437012	1097.533447	-1001.563660	1004.673035	1108.094482	-674.586487	1065.056152	1165.038574	-932.511108	824.231445	1346.953125	-1057.766724	917.729736	1311.720093	-901.217041	914.598694	1475.509277	-837.621887	917.848145	1258.047607	-0.363123	1.589500	-11.645769	0.363123	-1.589500	-11.645769	-4.271516	-17.146082	-2.726444	-2.093006	-15.074748	-4.827601	7.650496	-12.047122	-14.020296	6.180027	-9.189350	-13.178551	-3.237272	-16.379469	-12.717771	-3.187950	-11.670704	-10.880853	0.655717	10.637637	-5.793964	0.322330	8.249919	-3.543356	0.000000	-0.000000	0.000000	0.000000	0.000000	0.000000	0.000000	0.000000	-9.404595	0.000000	0.000000	-8.859941	1.006450	-8.302629	21.041227	-1.006450	8.302629	21.041227	-1.343320	1.431067	0.763982	1.343320	-1.431067	0.763982	-29.105013	-29.607323	-6.090547	0.000000	-0.000000	-35.156635	11.101261	123.242592	-1.562241	-26.635939	-40.898399	-7.798529	0.000000	0.000000	-34.410217	8.885649	116.013702	-6.478028	1.664152	-3.044279	-10.811716	-1.664152	3.044279	-10.811716	2.503094	4.670750	-10.250037	-2.503094	-4.670750	-10.250037	NaN	NaN	NaN	NaN	NaN	NaN	NaN	NaN	NaN	NaN	NaN	NaN	NaN	NaN	NaN	NaN	NaN	NaN	NaN	NaN	NaN	NaN	NaN	NaN	NaN	NaN	NaN	NaN	NaN	NaN	NaN	NaN	NaN	NaN	NaN	NaN	NaN	NaN	NaN	NaN	NaN	NaN	NaN	NaN	NaN	NaN	NaN	NaN	-398.021027	1.304700	259.089996	-231.415009	1.697000	-251.317001	-396.987000	4.582600	-949.962036	0.000000	0.000000	0.000000	0.000000	0.000000	0.000000	NaN	NaN	NaN	NaN	NaN	NaN	NaN	NaN	NaN	NaN	NaN	NaN	NaN	NaN	NaN	NaN	NaN	NaN	NaN	NaN	NaN	NaN	NaN	NaN	NaN	NaN	NaN	NaN	NaN	NaN	NaN	NaN	NaN	-496.580668	850.303690	1189.732618	
150	0.993333	-334.950317	1545.862793	1298.306519	-333.841827	1521.758179	1159.026245	-461.709473	1542.788086	1306.777344	-484.825043	1517.975098	1180.995117	-401.255005	1406.159424	1149.209595	-393.998993	1225.523926	1086.973877	-406.464539	1339.099487	1266.641968	-407.296448	1302.795288	1287.475098	-508.677399	1266.897705	1077.771240	-254.543549	1380.284180	1181.686157	-145.903641	1190.150269	1151.781494	-88.102287	1114.767090	1172.026123	-41.354107	1071.705688	1192.811157	49.404503	941.531738	1268.811035	23.874023	950.114441	1333.262817	79.489372	901.291199	1350.319702	-554.995605	1367.358887	1176.451538	-623.071655	1281.120483	1158.133057	-694.411011	1091.827759	1148.490967	-817.600464	951.816040	1205.120605	-842.861877	909.728821	1223.486816	-842.252197	935.295288	1289.145752	-900.164429	882.783997	1298.789307	-393.958618	971.696228	1083.431885	-253.886444	934.231995	1269.641724	-540.041565	934.050110	1261.521362	-206.057816	643.495850	1239.099243	-191.026733	553.458862	1157.218384	-234.956253	566.723694	1293.119141	-202.850906	258.259491	1179.337891	-188.192078	179.843277	1087.090454	-227.517670	178.381638	1223.729858	-275.681976	39.445187	1091.295532	-226.214539	38.866993	1252.086182	-583.625122	660.815735	1198.970459	-555.472778	589.719910	1101.260864	-582.506104	571.986877	1241.506836	-576.960083	267.653870	1154.216797	-555.148621	203.313354	1054.023438	-571.242981	182.321762	1193.786865	-495.220703	41.383205	1085.276367	-539.824402	39.912998	1246.355469	-395.024445	848.692200	1200.204956	-395.442413	845.640381	1215.001587	-382.434631	848.700256	1200.562256	-395.824493	972.046875	1225.624512	-393.481079	959.573242	1142.276123	-393.655212	958.301636	1148.441406	-387.186157	959.577271	1142.454712	-393.881073	1021.250549	1154.985962	-281.333069	469.594147	1219.193359	-274.475281	472.210571	1256.779907	-243.998856	474.267609	1212.056274	-332.077332	848.795044	1202.055298	-498.624451	473.698730	1207.180542	-505.665710	475.333832	1244.200562	-461.791992	469.873535	1214.355103	-457.971497	848.589233	1198.354614	-266.434296	45.473278	1149.674561	-248.369339	40.625729	1183.120117	-231.539764	49.688293	1131.437866	-280.152985	436.000458	1213.686890	-505.548767	50.471943	1142.332153	-521.225037	45.242950	1178.132568	-469.374146	47.519100	1157.740967	-499.172882	440.175812	1202.044067	-226.953705	49.201607	1252.806641	-227.905548	62.509262	1253.734497	-214.209763	50.383648	1248.926636	-266.382019	55.281406	1125.156738	-539.463867	50.076035	1247.311035	-538.996521	63.251385	1248.549683	-526.686218	49.304245	1250.699097	-505.030884	60.832973	1119.902466	-214.008774	47.552040	1294.821167	-214.309326	51.754463	1295.114136	-209.984360	47.925278	1293.595825	-226.460190	49.471725	1254.510742	-550.778198	46.884155	1289.254272	-550.630615	51.044796	1289.645508	-546.743164	46.640442	1290.324219	-539.904541	50.281471	1249.020142	-410.804047	1443.392700	1128.631958	-392.424011	1484.248291	1350.009888	-185.904785	1449.812256	1108.774780	-420.687897	1665.439453	1088.473633	-258.058685	1333.478760	1179.258789	-178.231506	1319.811279	1327.200195	-245.444656	1501.439575	1187.969360	-406.093567	1340.420532	1259.777710	-547.119385	1321.092163	1173.929688	-630.590881	1299.139038	1315.994019	-519.263062	1157.457886	1165.010620	-406.093689	1340.420532	1259.777710	-406.093658	1340.420532	1259.777710	-414.965027	1308.821411	1423.973022	-573.231079	1337.308838	1250.148560	-401.225189	1176.015137	1228.401245	-120.088394	1096.213013	1170.747925	-210.979355	1052.521484	915.340027	-339.419861	965.066956	1271.235107	-258.058685	1333.478760	1179.258789	32.294590	940.426880	1300.034546	36.700504	792.528687	1116.629028	-155.928574	827.881592	1386.269409	-109.421570	1085.307983	1179.797974	99.238312	836.161926	1391.010132	211.936584	935.885193	1422.372314	179.530548	783.121338	1271.139038	32.294540	940.426880	1300.034546	-662.319641	1076.115967	1158.097290	-502.475403	1014.535278	947.876465	-848.636230	1174.754639	987.534424	-547.119385	1321.092163	1173.929688	-837.631836	917.861572	1258.081421	-778.883789	751.424500	1097.654541	-1001.509399	1004.620667	1108.060303	-674.591553	1065.038086	1165.096191	-932.488342	824.196289	1346.961182	-1057.773438	917.648926	1311.735718	-901.239746	914.551147	1475.530640	-837.631897	917.861572	1258.081299	-0.363821	1.584663	-11.643981	0.363821	-1.584663	-11.643981	-4.271325	-17.146690	-2.726638	-2.094797	-15.072047	-4.826144	7.648232	-12.048439	-14.018935	6.182873	-9.187305	-13.173868	-3.236239	-16.375494	-12.720039	-3.189267	-11.676590	-10.879662	0.656076	10.638831	-5.796058	0.322713	8.251916	-3.546202	0.000000	0.000000	0.000000	-0.000000	-0.000000	-0.000000	0.000000	0.000000	-9.406663	0.000000	0.000000	-8.862421	1.003803	-8.299711	21.035988	-1.003803	8.299711	21.035988	-1.344771	1.429762	0.769104	1.344771	-1.429762	0.769104	-29.106373	-29.609106	-6.087454	0.000000	-0.000000	-35.156525	11.109023	123.233482	-1.563555	-26.637196	-40.926071	-7.801373	-0.000000	-0.000000	-34.404064	8.904675	116.033005	-6.451231	1.666116	-3.038316	-10.804874	-1.666116	3.038316	-10.804874	2.508055	4.672174	-10.251446	-2.508055	-4.672174	-10.251446	NaN	NaN	NaN	NaN	NaN	NaN	NaN	NaN	NaN	NaN	NaN	NaN	NaN	NaN	NaN	NaN	NaN	NaN	NaN	NaN	NaN	NaN	NaN	NaN	NaN	NaN	NaN	NaN	NaN	NaN	NaN	NaN	NaN	NaN	NaN	NaN	NaN	NaN	NaN	NaN	NaN	NaN	NaN	NaN	NaN	NaN	NaN	NaN	-398.021027	1.304700	259.089996	-231.415009	1.697000	-251.317001	-396.987000	4.582600	-949.962036	0.000000	0.000000	0.000000	0.000000	0.000000	0.000000	NaN	NaN	NaN	NaN	NaN	NaN	NaN	NaN	NaN	NaN	NaN	NaN	NaN	NaN	NaN	NaN	NaN	NaN	NaN	NaN	NaN	NaN	NaN	NaN	NaN	NaN	NaN	NaN	NaN	NaN	NaN	NaN	NaN	-496.569455	850.302105	1189.765381	
